HIERARCHY
ROOT Hips
{
	OFFSET -0.001795 -0.223333 0.028219
	CHANNELS 6 Xposition Yposition Zposition Zrotation Yrotation Xrotation 
	JOINT LeftUpLeg
	{
		OFFSET 0.069520 -0.091406 -0.006815
		CHANNELS 3 Zrotation Yrotation Xrotation
		JOINT LeftLeg
		{
			OFFSET 0.034277 -0.375199 -0.004496
			CHANNELS 3 Zrotation Yrotation Xrotation
			JOINT LeftFoot
			{
				OFFSET -0.013596 -0.397961 -0.043693
				CHANNELS 3 Zrotation Yrotation Xrotation
				JOINT LeftToe
				{
					OFFSET 0.026358 -0.055791 0.119288
					CHANNELS 3 Zrotation Yrotation Xrotation
					End Site
					{
						OFFSET 0.000000 0.000000 0.000000
					}
				}
			}
		}
	}
	JOINT RightUpLeg
	{
		OFFSET -0.067670 -0.090522 -0.004320
		CHANNELS 3 Zrotation Yrotation Xrotation
		JOINT RightLeg
		{
			OFFSET -0.038290 -0.382569 -0.008850
			CHANNELS 3 Zrotation Yrotation Xrotation
			JOINT RightFoot
			{
				OFFSET 0.015774 -0.398415 -0.042312
				CHANNELS 3 Zrotation Yrotation Xrotation
				JOINT RightToe
				{
					OFFSET -0.025372 -0.048144 0.123348
					CHANNELS 3 Zrotation Yrotation Xrotation
					End Site
					{
						OFFSET 0.000000 0.000000 0.000000
					}
				}
			}
		}
	}
	JOINT Spine
	{
		OFFSET -0.002533 0.108963 -0.026696
		CHANNELS 3 Zrotation Yrotation Xrotation
		JOINT Spine1
		{
			OFFSET 0.005487 0.135180 0.001092
			CHANNELS 3 Zrotation Yrotation Xrotation
			JOINT Spine2
			{
				OFFSET 0.001457 0.052922 0.025425
				CHANNELS 3 Zrotation Yrotation Xrotation
				JOINT Neck
				{
					OFFSET -0.002778 0.213870 -0.042857
					CHANNELS 3 Zrotation Yrotation Xrotation
					JOINT Head
					{
						OFFSET 0.005152 0.064970 0.051349
						CHANNELS 3 Zrotation Yrotation Xrotation
						End Site
						{
							OFFSET 0.000000 0.000000 0.000000
						}
					}
				}
				JOINT LeftShoulder
				{
					OFFSET 0.078845 0.121749 -0.034090
					CHANNELS 3 Zrotation Yrotation Xrotation
					JOINT LeftArm
					{
						OFFSET 0.090977 0.030469 -0.008868
						CHANNELS 3 Zrotation Yrotation Xrotation
						JOINT LeftForeArm
						{
							OFFSET 0.259612 -0.012772 -0.027456
							CHANNELS 3 Zrotation Yrotation Xrotation
							JOINT LeftHand
							{
								OFFSET 0.249234 0.008986 -0.001171
								CHANNELS 3 Zrotation Yrotation Xrotation
								End Site
								{
									OFFSET 0.000000 0.000000 0.000000
								}
							}
						}
					}
				}
				JOINT RightShoulder
				{
					OFFSET -0.081759 0.118833 -0.038615
					CHANNELS 3 Zrotation Yrotation Xrotation
					JOINT RightArm
					{
						OFFSET -0.096012 0.032551 -0.009143
						CHANNELS 3 Zrotation Yrotation Xrotation
						JOINT RightForeArm
						{
							OFFSET -0.253742 -0.013329 -0.021401
							CHANNELS 3 Zrotation Yrotation Xrotation
							JOINT RightHand
							{
								OFFSET -0.255298 0.007772 -0.005559
								CHANNELS 3 Zrotation Yrotation Xrotation
								End Site
								{
									OFFSET 0.000000 0.000000 0.000000
								}
							}
						}
					}
				}
			}
		}
	}
}
MOTION
Frames: 13
Frame Time: 0.050000
0.000000 0.945470 0.000000 -0.279686 0.570946 9.303640 7.008311 -0.447595 -6.339682 -0.611062 0.232400 -5.885351 3.195982 9.914916 12.420674 0.000000 0.000000 0.000000 -5.359622 0.663317 -7.819589 -2.147970 -0.038381 -4.422685 -0.773652 -6.552095 12.761822 0.000000 0.000000 0.000000 5.371436 0.339330 -6.430095 -2.069727 0.995313 -4.864208 -4.705343 3.318714 5.671784 6.391625 -2.494873 -14.690520 0.000000 0.000000 0.000000 -16.774164 -2.625891 -1.226937 -51.806179 -10.535952 -1.538300 -12.579102 -20.110800 2.804399 0.000000 0.000000 0.000000 15.474929 -5.366001 -3.288705 60.450763 10.237937 -0.501140 12.894229 23.711752 3.550128 0.000000 0.000000 0.000000 
0.000111 0.944859 0.000036 -0.173599 0.110650 10.182394 6.806907 -0.463034 -6.475918 -0.094900 0.225065 -6.454555 3.392956 10.183586 12.455734 0.000000 0.000000 0.000000 -5.520684 0.731210 -8.858954 -2.259720 -0.021693 -4.218307 -0.215971 -5.842765 13.685000 0.000000 0.000000 0.000000 6.246025 0.413672 -7.215159 -2.708581 1.251192 -5.487195 -5.602096 3.899037 5.801307 6.600548 -2.449816 -15.490475 0.000000 0.000000 0.000000 -17.981469 -2.262638 -1.683237 -50.560800 -10.609476 -1.416686 -13.067570 -19.692076 2.810299 0.000000 0.000000 0.000000 15.283879 -6.720283 -3.886249 62.288996 9.923461 -0.558242 13.148134 23.222946 3.546920 0.000000 0.000000 0.000000 
0.000091 0.945289 -0.000063 0.359221 0.979519 10.227590 6.220619 -0.500432 -6.870281 0.152698 0.176789 -5.463501 2.822877 9.296047 12.083080 0.000000 0.000000 0.000000 -5.753152 0.715594 -8.962328 -2.709851 0.024028 -4.015812 -0.978999 -7.024855 13.337007 0.000000 0.000000 0.000000 5.762772 0.392010 -7.199588 -2.337127 1.111600 -6.041340 -6.229519 3.082195 5.967604 6.219125 -2.528809 -13.678609 0.000000 0.000000 0.000000 -17.895852 -2.852477 -1.311736 -50.098606 -10.041165 -1.667496 -13.627097 -19.433356 2.877234 0.000000 0.000000 0.000000 16.245790 -5.671745 -3.467547 61.479022 8.991263 -1.169972 13.191804 24.084102 3.701156 0.000000 0.000000 0.000000 
0.000083 0.945719 -0.000088 0.534528 1.388719 10.647730 6.494427 -0.528520 -7.472513 -0.294131 0.201819 -5.495734 2.422277 8.770063 12.394870 0.000000 0.000000 0.000000 -5.984910 0.734352 -9.543915 -2.851172 0.016389 -4.299812 -1.144577 -7.433308 14.003190 0.000000 0.000000 0.000000 6.018821 0.396374 -7.339746 -2.845434 1.320281 -5.437769 -6.341877 2.382391 4.682771 6.165954 -2.683241 -12.554968 0.000000 0.000000 0.000000 -18.414732 -2.276633 -1.623573 -49.724650 -10.418940 -1.372391 -13.567687 -18.733927 2.767023 0.000000 0.000000 0.000000 15.658883 -6.390468 -3.891140 61.908795 8.173779 -1.424916 14.214705 24.146478 3.878547 0.000000 0.000000 0.000000 
-0.000034 0.946319 -0.000082 0.861833 2.151200 10.604162 6.131279 -0.549647 -7.557725 -0.282513 0.195206 -5.346017 1.779284 7.842013 12.431181 0.000000 0.000000 0.000000 -6.265883 0.697772 -9.277862 -3.117161 0.028625 -4.429340 -1.534301 -8.004939 13.912733 0.000000 0.000000 0.000000 5.719486 0.383681 -7.344183 -2.565464 1.215572 -5.558537 -6.815270 2.136148 4.952680 5.889302 -2.485701 -12.548620 0.000000 0.000000 0.000000 -18.412536 -2.740432 -1.443375 -49.332127 -10.792380 -1.217283 -14.884994 -18.643903 2.955927 0.000000 0.000000 0.000000 15.714730 -6.647201 -3.975337 61.545261 7.661199 -1.713636 15.204294 24.746396 4.225502 0.000000 0.000000 0.000000 
-0.000121 0.946772 -0.000016 1.015324 2.310607 10.786276 6.029182 -0.566166 -7.803832 -0.309829 0.185741 -4.993342 1.752899 7.812278 12.400636 0.000000 0.000000 0.000000 -6.326104 0.699928 -9.399338 -3.456383 0.032212 -4.695451 -1.542420 -8.068944 14.251935 0.000000 0.000000 0.000000 5.696373 0.403234 -7.636015 -2.578867 1.222168 -5.401361 -7.017483 2.044562 4.811043 6.047604 -2.602886 -12.420949 0.000000 0.000000 0.000000 -18.969812 -2.679942 -1.569189 -48.911791 -10.806965 -1.164895 -14.958275 -18.484069 2.939336 0.000000 0.000000 0.000000 15.313468 -6.677886 -3.944253 61.836797 7.616365 -1.696481 15.469655 24.782434 4.287287 0.000000 0.000000 0.000000 
-0.000252 0.946758 0.000013 1.234840 2.607227 10.730534 5.911387 -0.576296 -7.904754 -0.587309 0.195983 -4.816202 1.677985 7.800968 12.668351 0.000000 0.000000 0.000000 -6.327346 0.685741 -9.210387 -3.582119 0.036947 -4.761092 -1.640939 -8.157950 14.053283 0.000000 0.000000 0.000000 5.468073 0.396217 -7.636133 -2.510335 1.197141 -5.219524 -7.183739 1.702834 4.698907 5.993225 -2.528092 -12.716491 0.000000 0.000000 0.000000 -19.014799 -2.661558 -1.555164 -49.032703 -10.672935 -1.216455 -15.268599 -18.222656 2.949433 0.000000 0.000000 0.000000 15.244756 -6.447554 -3.844850 61.991243 7.232524 -1.890427 15.542900 25.116390 4.357923 0.000000 0.000000 0.000000 
-0.000338 0.946673 -0.000011 1.326857 2.582628 10.736164 5.825460 -0.582061 -8.004776 -0.707445 0.196028 -4.554047 1.700956 7.718242 12.231346 0.000000 0.000000 0.000000 -6.406044 0.680876 -9.166060 -3.575280 0.032023 -4.821621 -1.674806 -8.187686 13.893499 0.000000 0.000000 0.000000 5.469887 0.396962 -7.642059 -2.534245 1.207851 -5.411387 -7.288399 1.785040 4.876649 5.847150 -2.456132 -12.553776 0.000000 0.000000 0.000000 -19.072818 -2.591333 -1.616582 -48.869486 -10.493257 -1.293769 -15.564226 -18.013902 2.957865 0.000000 0.000000 0.000000 15.338517 -6.608251 -3.918619 62.121557 7.154725 -1.949411 15.351205 24.854954 4.273924 0.000000 0.000000 0.000000 
-0.000478 0.946547 -0.000034 1.447916 2.479928 10.697411 5.685925 -0.582029 -7.968730 -0.852309 0.202133 -4.441206 1.829117 7.882002 12.112419 0.000000 0.000000 0.000000 -6.458318 0.675508 -9.062770 -3.581254 0.026500 -4.896524 -1.658308 -8.159472 13.834314 0.000000 0.000000 0.000000 5.417270 0.397802 -7.642168 -2.563968 1.220246 -5.620660 -7.207198 1.868553 5.130004 5.679703 -2.345613 -12.596963 0.000000 0.000000 0.000000 -18.925496 -2.637202 -1.563914 -49.054149 -10.328274 -1.394429 -15.796072 -17.581593 2.921752 0.000000 0.000000 0.000000 15.258414 -6.536805 -3.867046 61.932626 7.073637 -2.019590 15.240542 24.933909 4.269921 0.000000 0.000000 0.000000 
-0.000659 0.946493 0.000025 1.595750 2.539243 10.604847 5.576635 -0.582093 -7.924610 -0.885582 0.199365 -4.254813 1.801932 7.789743 11.901439 0.000000 0.000000 0.000000 -6.579538 0.658056 -8.814346 -3.532008 0.002116 -5.197693 -1.644019 -8.180799 14.096312 0.000000 0.000000 0.000000 5.429915 0.402816 -7.685556 -2.649162 1.256317 -5.680662 -7.207683 1.739845 5.329289 5.172778 -2.034992 -12.559713 0.000000 0.000000 0.000000 -18.831906 -2.623144 -1.525436 -48.889272 -10.268481 -1.440652 -16.119740 -17.347318 2.934648 0.000000 0.000000 0.000000 15.183341 -6.321627 -3.761678 61.812621 7.039511 -2.066381 15.250530 24.947333 4.271269 0.000000 0.000000 0.000000 
-0.000839 0.946414 0.000133 1.672759 2.615246 10.494164 5.596636 -0.567117 -7.606346 -0.921587 0.204546 -4.378967 1.718916 7.677025 11.954577 0.000000 0.000000 0.000000 -6.709286 0.645479 -8.693321 -3.483725 0.000462 -5.187200 -1.639146 -8.178135 14.184400 0.000000 0.000000 0.000000 5.508384 0.407561 -7.708863 -2.613719 1.243048 -5.606974 -7.205143 1.697065 5.400755 5.146462 -2.018466 -12.568517 0.000000 0.000000 0.000000 -18.789171 -2.660848 -1.496655 -48.813722 -9.947749 -1.573723 -16.509950 -17.148952 2.957378 0.000000 0.000000 0.000000 15.041549 -6.439330 -3.806306 61.763494 7.038766 -2.069107 15.255862 24.955562 4.275317 0.000000 0.000000 0.000000 
-0.000961 0.946227 0.000267 1.683844 2.746454 10.394006 5.674940 -0.554934 -7.352505 -0.925823 0.208116 -4.526471 1.647850 7.567887 11.928591 0.000000 0.000000 0.000000 -6.830041 0.627435 -8.419577 -3.328049 -0.016198 -5.302741 -1.709362 -8.302636 14.264619 0.000000 0.000000 0.000000 5.488871 0.417141 -7.823511 -2.520080 1.206982 -5.546878 -7.048189 1.596144 5.459801 4.855082 -1.817323 -12.693363 0.000000 0.000000 0.000000 -18.683507 -2.574097 -1.510797 -48.923655 -9.621197 -1.718720 -16.546576 -16.918888 2.923799 0.000000 0.000000 0.000000 14.682076 -6.518957 -3.817436 61.850003 6.826979 -2.174611 15.243114 24.908373 4.259498 0.000000 0.000000 0.000000 
-0.001076 0.946179 0.000361 1.644234 2.878674 10.251562 5.800982 -0.542518 -7.121768 -1.048736 0.214669 -4.506168 1.624501 7.500883 11.778386 0.000000 0.000000 0.000000 -6.824608 0.615034 -8.205315 -3.246889 -0.014194 -5.218684 -1.727514 -8.279993 14.093937 0.000000 0.000000 0.000000 5.524502 0.427660 -7.923038 -2.466405 1.186334 -5.463519 -6.874534 1.504959 5.470369 4.867970 -1.854260 -12.531557 0.000000 0.000000 0.000000 -18.397918 -2.571067 -1.460838 -49.254310 -9.386456 -1.837829 -16.572308 -16.648442 2.879676 0.000000 0.000000 0.000000 14.646961 -6.529222 -3.827470 61.682190 6.661614 -2.264421 15.074058 24.667520 4.171604 0.000000 0.000000 0.000000 
